<svg width="40" height="40" viewBox="0 0 40 40" fill="none" xmlns="http://www.w3.org/2000/svg">
<ellipse cx="19.258" cy="19.2183" rx="19.258" ry="19.2183" fill="#DEDEE8"/>
<mask id="mask0_60_846" style="mask-type:alpha" maskUnits="userSpaceOnUse" x="0" y="0" width="40" height="40">
<path d="M20 40C31.0457 40 40 31.0457 40 20C40 8.9543 31.0457 0 20 0C8.9543 0 0 8.9543 0 20C0 31.0457 8.9543 40 20 40Z" fill="#F26060"/>
</mask>
<g mask="url(#mask0_60_846)">
</g>
<mask id="mask1_60_846" style="mask-type:alpha" maskUnits="userSpaceOnUse" x="0" y="0" width="40" height="40">
<path d="M20 40C31.0457 40 40 31.0457 40 20C40 8.9543 31.0457 0 20 0C8.9543 0 0 8.9543 0 20C0 31.0457 8.9543 40 20 40Z" fill="#F26060"/>
</mask>
<g mask="url(#mask1_60_846)">
</g>
<mask id="mask2_60_846" style="mask-type:alpha" maskUnits="userSpaceOnUse" x="0" y="0" width="39" height="39">
<path d="M19.258 38.4367C29.8939 38.4367 38.5159 29.8323 38.5159 19.2183C38.5159 8.60434 29.8939 0 19.258 0C8.62209 0 0 8.60434 0 19.2183C0 29.8323 8.62209 38.4367 19.258 38.4367Z" fill="#F26060"/>
</mask>
<g mask="url(#mask2_60_846)">
<path d="M10.8129 34.8225C10.8129 34.8225 8.351 32.7383 9.80743 29.3358C11.2639 25.9333 15.5187 25.4308 19.6153 25.4296C25.8648 25.4279 33.33 27.5922 28.3497 34.8215C28.3497 34.8225 22.1492 38.9488 10.8129 34.8225Z" fill="#FF9A40"/>
<path d="M16.9768 30.7485C16.9373 30.7484 16.8988 30.7357 16.8669 30.7123C16.8349 30.6889 16.8112 30.6559 16.799 30.618C16.3421 29.1945 15.0817 28.2991 15.0684 28.2901C15.0288 28.2612 15.0021 28.2178 14.9939 28.1693C14.9857 28.1208 14.9967 28.071 15.0246 28.0306C15.0524 27.9901 15.0949 27.9623 15.143 27.953C15.191 27.9438 15.2407 27.9538 15.2815 27.981C16.1403 28.6163 16.7923 29.4938 17.1548 30.5024C17.1624 30.526 17.1652 30.5508 17.1632 30.5754C17.1612 30.6 17.1544 30.6241 17.1432 30.646C17.1319 30.668 17.1165 30.6876 17.0977 30.7036C17.079 30.7196 17.0573 30.7317 17.0339 30.7392C17.0154 30.7452 16.9962 30.7483 16.9768 30.7485Z" fill="#E96D17"/>
<path d="M19.6294 33.2782C19.598 33.2782 19.5672 33.2703 19.5396 33.2551C19.5121 33.24 19.4888 33.2181 19.4719 33.1916C17.8417 30.6361 12.9896 29.8962 12.9413 29.8892C12.8922 29.882 12.848 29.8555 12.8183 29.8154C12.7887 29.7754 12.7761 29.7252 12.7832 29.6758C12.7904 29.6265 12.8167 29.582 12.8565 29.5521C12.8962 29.5223 12.9461 29.5096 12.9952 29.5168C13.2013 29.5472 18.0635 30.2888 19.7861 32.9883C19.8042 33.0168 19.8143 33.0496 19.8155 33.0833C19.8167 33.117 19.8088 33.1504 19.7927 33.1801C19.7767 33.2097 19.753 33.2344 19.7242 33.2517C19.6953 33.269 19.6624 33.2781 19.6289 33.2782H19.6294Z" fill="#E96D17"/>
<path d="M36.4421 41.3199H3.26562C3.26562 41.3199 3.59884 37.1556 5.60176 36.3493C6.4111 36.0235 8.26579 35.095 10.1904 34.1032C12.8793 32.7178 15.7036 31.2102 15.9912 31.056L16.0153 31.0428L16.2688 31.1005C16.586 31.172 16.9044 31.2333 17.2239 31.2842C17.5397 31.3355 17.8564 31.3768 18.174 31.4083C19.9295 31.582 21.7015 31.4591 23.4167 31.0448L23.4247 31.0428C23.4247 31.0428 25.5947 32.1682 28.0145 33.3937C28.324 33.5504 28.6381 33.71 28.952 33.8675C31.0908 34.9446 33.232 35.9977 34.1054 36.3493C36.1081 37.1556 36.4421 41.3199 36.4421 41.3199Z" fill="#FF9A40"/>
<path d="M21.3935 36.0191C19.869 36.0158 18.3632 35.6815 16.9788 35.039C15.9845 34.5943 15.0686 33.9898 14.2672 33.2492C14.2509 33.2329 14.238 33.2135 14.2292 33.1922C14.2204 33.1709 14.2159 33.1481 14.2158 33.125C14.2158 33.0784 14.2341 33.0337 14.2668 33.0006C14.2995 32.9676 14.3439 32.9491 14.3902 32.949C14.4365 32.9489 14.481 32.9674 14.5138 33.0003C15.2915 33.712 16.177 34.2943 17.137 34.7254C19.2904 35.7244 21.7227 35.9363 24.0148 35.3244C24.0597 35.3127 24.1073 35.3194 24.1473 35.343C24.1873 35.3666 24.2164 35.4053 24.228 35.4505C24.2397 35.4956 24.2331 35.5436 24.2096 35.5839C24.1861 35.6241 24.1477 35.6533 24.1028 35.6651C23.2184 35.8988 22.3079 36.0178 21.3935 36.0191Z" fill="#E96D17"/>
<path d="M20.5335 37.7124C19.8836 37.7108 19.2357 37.6417 18.5999 37.5063C18.5775 37.5015 18.5562 37.4924 18.5372 37.4794C18.5183 37.4664 18.502 37.4498 18.4895 37.4305C18.4769 37.4112 18.4682 37.3896 18.464 37.3669C18.4597 37.3442 18.4599 37.3209 18.4646 37.2983C18.4693 37.2757 18.4784 37.2543 18.4913 37.2352C18.5042 37.2161 18.5207 37.1998 18.5399 37.1871C18.5591 37.1745 18.5806 37.1658 18.6031 37.1615C18.6257 37.1572 18.6488 37.1574 18.6713 37.1621C22.1209 37.8869 24.2777 36.3648 24.299 36.3495C24.3176 36.3354 24.3388 36.3253 24.3613 36.3196C24.3838 36.3139 24.4073 36.3127 24.4302 36.3163C24.4532 36.3198 24.4753 36.3279 24.4951 36.3401C24.5149 36.3523 24.5321 36.3684 24.5457 36.3874C24.5592 36.4064 24.5689 36.4279 24.5741 36.4507C24.5793 36.4734 24.5799 36.4971 24.576 36.5201C24.572 36.5431 24.5635 36.5651 24.5509 36.5848C24.5384 36.6045 24.522 36.6215 24.5029 36.6347C24.4284 36.6902 22.9772 37.7124 20.5335 37.7124Z" fill="#E96D17"/>
<path d="M23.5928 31.8932C23.5928 31.8932 22.9421 33.9512 19.9526 33.9512C16.4655 33.9512 15.6445 32.0803 15.6445 32.0803C15.9177 31.3563 16.1356 30.6124 16.2962 29.855C16.4965 28.9431 16.5901 28.0107 16.575 27.0768L22.7013 26.8335C22.7581 27.3554 22.8502 27.97 22.9542 28.5883C23.2323 30.2292 23.5928 31.8932 23.5928 31.8932Z" fill="#FFB8A1"/>
<path d="M22.9567 28.5883C22.0073 29.2527 19.9318 30.2418 16.2969 29.8563C16.4972 28.9441 16.5908 28.0115 16.5758 27.0774L22.7037 26.834C22.7612 27.3546 22.8534 27.9694 22.9567 28.5883Z" fill="#3F2037"/>
<path d="M14.2388 19.0382C14.2388 19.0382 12.3425 16.4408 10.8673 17.978C9.39213 19.5152 12.237 24.869 14.8183 23.7028L14.2388 19.0382Z" fill="#FFB8A1"/>
<path d="M13.3345 22.1071C13.3029 22.107 13.2724 22.0955 13.2485 22.0746C13.2247 22.0537 13.2092 22.0249 13.2048 21.9934C12.9555 20.1888 11.5301 19.0811 11.5156 19.0702C11.4879 19.049 11.4698 19.0177 11.4651 18.9831C11.4604 18.9485 11.4695 18.9134 11.4905 18.8856C11.5116 18.8578 11.5427 18.8395 11.5771 18.8348C11.6115 18.83 11.6464 18.8393 11.674 18.8604C12.6246 19.6396 13.2608 20.7404 13.4639 21.9571C13.4686 21.9918 13.4595 22.0269 13.4386 22.0548C13.4176 22.0826 13.3865 22.101 13.3521 22.1059C13.3463 22.1067 13.3404 22.1071 13.3345 22.1071Z" fill="#FF8A8A"/>
<path d="M12.937 20.8107C12.9156 20.8108 12.8944 20.8055 12.8755 20.7953C12.8565 20.7852 12.8404 20.7705 12.8284 20.7526C12.6381 20.4695 12.0687 20.4405 11.8662 20.4532C11.8487 20.455 11.8309 20.4533 11.814 20.448C11.7972 20.4428 11.7815 20.4341 11.7681 20.4226C11.7546 20.4112 11.7436 20.3971 11.7356 20.3812C11.7277 20.3653 11.723 20.348 11.7219 20.3303C11.7208 20.3125 11.7233 20.2948 11.7292 20.278C11.7351 20.2613 11.7443 20.2459 11.7562 20.2328C11.7681 20.2197 11.7826 20.2092 11.7987 20.2018C11.8147 20.1945 11.8321 20.1905 11.8498 20.1901C11.8858 20.1877 12.7329 20.1402 13.0454 20.6051C13.0587 20.6249 13.0665 20.648 13.0678 20.6719C13.0691 20.6958 13.0639 20.7196 13.0527 20.7407C13.0416 20.7619 13.0249 20.7796 13.0045 20.7919C12.9842 20.8042 12.9608 20.8107 12.937 20.8107Z" fill="#FF8A8A"/>
<path d="M25.7885 19.0382C25.7885 19.0382 27.6851 16.4408 29.16 17.978C30.635 19.5152 27.7905 24.869 25.209 23.7028L25.7885 19.0382Z" fill="#FFB8A1"/>
<path d="M26.6927 22.107C26.6866 22.1075 26.6806 22.1075 26.6745 22.107C26.6575 22.1047 26.6411 22.099 26.6262 22.0902C26.6114 22.0815 26.5984 22.0698 26.588 22.056C26.5776 22.0422 26.5701 22.0265 26.5657 22.0097C26.5614 21.993 26.5604 21.9755 26.5628 21.9583C26.7657 20.7416 27.402 19.6408 28.3527 18.8616C28.3663 18.8504 28.382 18.842 28.3989 18.837C28.4159 18.8319 28.4336 18.8304 28.4511 18.8325C28.4686 18.8345 28.4856 18.8401 28.5009 18.8489C28.5162 18.8577 28.5296 18.8695 28.5403 18.8836C28.5509 18.8977 28.5587 18.9139 28.563 18.9311C28.5674 18.9483 28.5682 18.9662 28.5655 18.9837C28.5628 19.0012 28.5566 19.018 28.5473 19.0331C28.538 19.0482 28.5258 19.0612 28.5113 19.0714C28.4968 19.0824 27.0707 20.1939 26.8221 21.9946C26.8174 22.0258 26.8018 22.0543 26.7781 22.075C26.7544 22.0956 26.724 22.107 26.6927 22.107Z" fill="#FF8A8A"/>
<path d="M27.0899 20.8107C27.0661 20.8107 27.0428 20.8041 27.0224 20.7918C27.002 20.7794 26.9854 20.7617 26.9742 20.7405C26.9631 20.7194 26.9579 20.6956 26.9592 20.6717C26.9605 20.6477 26.9682 20.6246 26.9815 20.6048C27.2938 20.1402 28.1411 20.1879 28.1772 20.1911C28.2108 20.1946 28.2418 20.211 28.2637 20.237C28.2855 20.263 28.2966 20.2965 28.2945 20.3304C28.2924 20.3644 28.2773 20.3963 28.2524 20.4193C28.2276 20.4424 28.1948 20.4549 28.1609 20.4542C27.9573 20.442 27.3881 20.4714 27.1985 20.7538C27.1864 20.7714 27.1701 20.7858 27.1512 20.7958C27.1323 20.8057 27.1112 20.8108 27.0899 20.8107Z" fill="#FF8A8A"/>
<path d="M21.6122 11.4683C16.3086 10.1661 11.5081 14.9905 12.7044 20.3492C13.5488 24.1322 15.401 28.9029 19.9529 29.0112C24.6965 29.1236 26.6002 23.9259 27.2776 19.9828C27.5806 18.2341 27.2496 16.434 26.3448 14.9101C25.44 13.3862 24.0215 12.2399 22.3475 11.6797C22.1078 11.6009 21.8627 11.5304 21.6122 11.4683Z" fill="#FFB8A1"/>
<path d="M20.3319 23.6139C20.0741 23.6063 19.8206 23.5457 19.587 23.4358C19.5498 23.4195 19.5189 23.3915 19.4989 23.356C19.4789 23.3205 19.4709 23.2794 19.4762 23.2389L19.8554 20.3074C19.8585 20.2828 19.8664 20.2591 19.8787 20.2377C19.8909 20.2162 19.9072 20.1973 19.9267 20.1822C19.9462 20.1671 19.9684 20.156 19.9922 20.1495C20.0159 20.143 20.0407 20.1414 20.0651 20.1446C20.0895 20.1478 20.113 20.1558 20.1344 20.1682C20.1557 20.1805 20.1743 20.197 20.1893 20.2167C20.2043 20.2363 20.2153 20.2588 20.2216 20.2827C20.2279 20.3066 20.2295 20.3315 20.2262 20.3561L19.8656 23.143C20.0061 23.2129 20.1617 23.2463 20.3183 23.24C20.4749 23.2338 20.6275 23.1881 20.762 23.1072C20.7823 23.0932 20.8053 23.0834 20.8294 23.0784C20.8535 23.0733 20.8784 23.0731 20.9026 23.0778C20.9268 23.0825 20.9499 23.0919 20.9705 23.1056C20.991 23.1192 21.0087 23.1369 21.0225 23.1574C21.0363 23.178 21.0459 23.2011 21.0507 23.2254C21.0556 23.2497 21.0557 23.2748 21.0509 23.2991C21.0461 23.3235 21.0366 23.3466 21.0228 23.3672C21.0091 23.3878 20.9915 23.4055 20.971 23.4192C20.7827 23.5483 20.5597 23.6163 20.3319 23.6139Z" fill="#FF8A8A"/>
<path d="M19.9857 25.5456C19.3272 25.5422 18.6783 25.3873 18.0884 25.0929C18.0459 25.0681 18.0148 25.0276 18.0018 24.98C17.9888 24.9324 17.9949 24.8815 18.0188 24.8384C18.0427 24.7953 18.0825 24.7633 18.1296 24.7495C18.1767 24.7356 18.2273 24.7409 18.2706 24.7643C18.3613 24.8147 20.431 25.9369 22.2223 24.2695C22.2403 24.2527 22.2615 24.2397 22.2845 24.2311C22.3075 24.2226 22.332 24.2187 22.3566 24.2196C22.3811 24.2206 22.4052 24.2264 22.4275 24.2367C22.4498 24.2471 22.4699 24.2617 22.4866 24.2799C22.5032 24.298 22.5162 24.3193 22.5247 24.3424C22.5332 24.3656 22.5371 24.3903 22.5362 24.415C22.5352 24.4396 22.5294 24.4639 22.5191 24.4863C22.5089 24.5088 22.4943 24.529 22.4763 24.5458C21.8063 25.1913 20.9133 25.5498 19.9857 25.5456Z" fill="#FF8A8A"/>
<path d="M20.288 26.6205C20.0223 26.62 19.758 26.5825 19.5024 26.5093C19.4551 26.4945 19.4156 26.4613 19.3925 26.4171C19.3695 26.3729 19.3648 26.3213 19.3796 26.2737C19.3943 26.2261 19.4273 26.1863 19.4712 26.1631C19.5151 26.1399 19.5664 26.1352 19.6137 26.1501C19.6219 26.1527 20.4511 26.4044 21.0342 26.0727C21.0774 26.0481 21.1285 26.0418 21.1763 26.0552C21.2241 26.0685 21.2646 26.1004 21.2891 26.1439C21.3135 26.1873 21.3197 26.2387 21.3065 26.2868C21.2932 26.3349 21.2615 26.3757 21.2183 26.4003C20.9321 26.5526 20.6118 26.6284 20.288 26.6205Z" fill="#FF8A8A"/>
<path d="M16.3416 18.2645C16.8274 17.9892 17.355 17.7965 17.9032 17.6942C17.975 17.6845 18.0438 17.6588 18.1046 17.619C18.1653 17.5792 18.2165 17.5262 18.2543 17.464C18.2922 17.4018 18.3158 17.3319 18.3234 17.2594C18.331 17.1868 18.3225 17.1135 18.2984 17.0447L18.2771 16.9853C18.2406 16.8821 18.1706 16.7943 18.0785 16.7359C17.9864 16.6775 17.8774 16.6521 17.7692 16.6635C17.2593 16.718 16.3562 16.8977 15.7667 17.4886C15.7043 17.5518 15.6602 17.631 15.6395 17.7177C15.6187 17.8043 15.622 17.8951 15.6489 17.98C15.6703 18.0486 15.7065 18.1116 15.7549 18.1645C15.8032 18.2174 15.8626 18.259 15.9288 18.2861C15.995 18.3133 16.0663 18.3255 16.1376 18.3217C16.209 18.318 16.2787 18.2984 16.3416 18.2645Z" fill="#3F2037"/>
<path d="M24.0772 18.2645C23.5915 17.9892 23.0639 17.7965 22.5157 17.6942C22.4438 17.6845 22.375 17.6588 22.3143 17.619C22.2536 17.5792 22.2024 17.5262 22.1646 17.464C22.1267 17.4018 22.1031 17.3319 22.0955 17.2593C22.0879 17.1868 22.0964 17.1135 22.1205 17.0447L22.1415 16.9853C22.1781 16.8821 22.248 16.7943 22.3401 16.7359C22.4323 16.6776 22.5412 16.6521 22.6494 16.6635C23.1593 16.718 24.0627 16.8977 24.6519 17.4886C24.7144 17.5518 24.7584 17.631 24.7792 17.7177C24.8 17.8043 24.7967 17.8951 24.7697 17.98C24.7484 18.0486 24.7122 18.1116 24.6639 18.1645C24.6155 18.2174 24.5561 18.2589 24.49 18.2861C24.4238 18.3133 24.3526 18.3254 24.2812 18.3217C24.2099 18.318 24.1402 18.2984 24.0772 18.2645Z" fill="#3F2037"/>
<g opacity="0.5">
<g opacity="0.5">
<path opacity="0.5" d="M17.7114 21.6458C17.7114 22.1083 16.8649 22.4814 15.8204 22.4814C14.776 22.4814 13.9297 22.1073 13.9297 21.6458C13.9297 21.1844 14.7763 20.8106 15.8204 20.8106C16.8646 20.8106 17.7114 21.1846 17.7114 21.6458Z" fill="#FF8A8A"/>
</g>
</g>
<g opacity="0.5">
<g opacity="0.5">
<path opacity="0.5" d="M26.6047 21.6458C26.6047 22.1083 25.7582 22.4814 24.714 22.4814C23.6698 22.4814 22.8232 22.1073 22.8232 21.6458C22.8232 21.1844 23.6698 20.8106 24.714 20.8106C25.7582 20.8106 26.6047 21.1846 26.6047 21.6458Z" fill="#FF8A8A"/>
</g>
</g>
<path d="M12.9011 21.1736C12.9011 21.1736 11.9049 15.6504 12.2129 14.3885C12.521 13.1267 13.1637 13.3571 13.1637 13.3571C13.1637 13.3571 7.79095 8.9264 10.463 6.41492C12.3974 4.59688 14.6221 8.48697 14.6221 8.48697C14.6221 8.48697 13.5214 4.66257 15.0873 4.13726C17.0395 3.4825 17.9226 8.06604 17.9226 8.06604C17.9226 8.06604 17.7615 4.64579 19.348 4.71416C21.5485 4.80783 20.3087 7.36457 22.6947 8.3624C25.0806 9.36022 28.6855 9.8668 27.3858 13.889C27.3858 13.889 29.1363 13.8121 26.9585 20.9899C26.3959 20.2035 26.1146 19.2486 26.1606 18.2808C26.1963 17.5382 26.1925 16.6779 26.0411 16.1492C26.0411 16.1492 24.6778 15.1907 24.7397 13.7876C24.7397 13.7876 19.9366 16.6562 15.5054 14.0995C15.5054 14.0995 15.7842 15.7521 14.3897 16.0015C14.0702 16.8372 13.8667 17.7132 13.7852 18.6049C13.7009 19.4921 13.4129 20.3474 12.9439 21.1035L12.9011 21.1736Z" fill="#3F2037"/>
<path d="M26.9409 11.3664C26.9409 11.3664 27.6999 8.75934 28.926 9.42644C29.8011 9.90273 27.7623 11.8863 27.7623 11.8863C27.7623 11.8863 29.4775 10.9534 30.3235 11.6108C31.1696 12.2681 28.9243 13.045 27.6303 12.8228C26.3362 12.6006 26.9409 11.3664 26.9409 11.3664Z" fill="#3F2037"/>
<path d="M17.843 19.7008C17.8517 20.2104 17.665 20.6256 17.4258 20.631C17.1866 20.6363 16.9856 20.2255 16.9769 19.7159C16.9681 19.2062 17.1546 18.7896 17.3939 18.7854C17.6331 18.7813 17.8341 19.1912 17.843 19.7008Z" fill="#3F2037"/>
<path d="M22.3685 19.7008C22.3595 20.2104 22.5463 20.6256 22.7855 20.631C23.0247 20.6363 23.2257 20.2255 23.2346 19.7159C23.2436 19.2062 23.0566 18.7896 22.8174 18.7854C22.5782 18.7813 22.3772 19.1912 22.3685 19.7008Z" fill="#3F2037"/>
<path d="M15.0048 36.0844V41.3214H14.6309V36.0844C14.6309 36.0345 14.6506 35.9866 14.6856 35.9514C14.7207 35.9161 14.7682 35.8963 14.8178 35.8963C14.8674 35.8963 14.915 35.9161 14.95 35.9514C14.9851 35.9866 15.0048 36.0345 15.0048 36.0844Z" fill="white"/>
<path d="M25.3964 36.0844V41.3214H25.0225V36.0844C25.0232 36.0403 25.0394 35.9979 25.068 35.9646C25.0967 35.9313 25.1361 35.9092 25.1793 35.9022C25.2225 35.8951 25.2668 35.9036 25.3045 35.9261C25.3421 35.9486 25.3707 35.9837 25.3853 36.0252C25.3924 36.0441 25.3962 36.0641 25.3964 36.0844Z" fill="white"/>
</g>
</svg>
